<mxfile host="app.diagrams.net" modified="2023-04-05T23:24:55.620Z" agent="Mozilla/5.0 (Windows NT 10.0; Win64; x64) AppleWebKit/537.36 (KHTML, like Gecko) Chrome/111.0.0.0 Safari/537.36" etag="r59p0RDDxT7jVy62-Ry-" version="21.1.1" type="device">
  <diagram id="R2lEEEUBdFMjLlhIrx00" name="Page-1">
    <mxGraphModel dx="1500" dy="830" grid="1" gridSize="10" guides="1" tooltips="1" connect="0" arrows="1" fold="1" page="1" pageScale="1" pageWidth="827" pageHeight="1169" background="#CCCCCC" math="0" shadow="0" extFonts="Permanent Marker^https://fonts.googleapis.com/css?family=Permanent+Marker">
      <root>
        <mxCell id="0" />
        <mxCell id="1" parent="0" />
        <mxCell id="7IuXafY-8ZTA0ZM4Ju-p-3" value="" style="endArrow=none;html=1;rounded=0;exitX=0.067;exitY=0.014;exitDx=0;exitDy=0;exitPerimeter=0;" parent="1" edge="1">
          <mxGeometry width="50" height="50" relative="1" as="geometry">
            <mxPoint x="102.73000000000002" y="120.98000000000002" as="sourcePoint" />
            <mxPoint x="82.40146153013825" y="88.38945408086806" as="targetPoint" />
            <Array as="points" />
          </mxGeometry>
        </mxCell>
        <mxCell id="7IuXafY-8ZTA0ZM4Ju-p-5" value="" style="endArrow=none;html=1;rounded=0;exitX=0.25;exitY=0;exitDx=0;exitDy=0;" parent="1" source="7IuXafY-8ZTA0ZM4Ju-p-10" edge="1">
          <mxGeometry width="50" height="50" relative="1" as="geometry">
            <mxPoint x="120" y="120" as="sourcePoint" />
            <mxPoint x="132.27012048318988" y="89.32469879202517" as="targetPoint" />
          </mxGeometry>
        </mxCell>
        <mxCell id="7IuXafY-8ZTA0ZM4Ju-p-7" value="" style="endArrow=none;html=1;rounded=0;entryX=0.5;entryY=1;entryDx=0;entryDy=0;exitX=0.75;exitY=0;exitDx=0;exitDy=0;" parent="1" source="7IuXafY-8ZTA0ZM4Ju-p-10" target="7IuXafY-8ZTA0ZM4Ju-p-11" edge="1">
          <mxGeometry width="50" height="50" relative="1" as="geometry">
            <mxPoint x="210" y="110" as="sourcePoint" />
            <mxPoint x="200" y="80" as="targetPoint" />
          </mxGeometry>
        </mxCell>
        <mxCell id="7IuXafY-8ZTA0ZM4Ju-p-10" value="&lt;font style=&quot;font-size: 20px;&quot;&gt;customer&lt;/font&gt;" style="whiteSpace=wrap;html=1;align=center;fillColor=#647687;strokeColor=#314354;fontColor=#ffffff;" parent="1" vertex="1">
          <mxGeometry x="90" y="120" width="180" height="70" as="geometry" />
        </mxCell>
        <mxCell id="7IuXafY-8ZTA0ZM4Ju-p-11" value="phone_number" style="ellipse;shape=doubleEllipse;margin=3;whiteSpace=wrap;html=1;align=center;fillColor=#1ba1e2;strokeColor=#006EAF;fontColor=#ffffff;" parent="1" vertex="1">
          <mxGeometry x="180" y="40" width="100" height="50" as="geometry" />
        </mxCell>
        <mxCell id="7IuXafY-8ZTA0ZM4Ju-p-13" value="&lt;font style=&quot;font-size: 12px;&quot;&gt;first_name&lt;/font&gt;" style="ellipse;whiteSpace=wrap;html=1;align=center;fillColor=#1ba1e2;strokeColor=#006EAF;fontColor=#ffffff;" parent="1" vertex="1">
          <mxGeometry x="90" y="30" width="80" height="60" as="geometry" />
        </mxCell>
        <mxCell id="7IuXafY-8ZTA0ZM4Ju-p-18" value="&lt;font style=&quot;font-size: 14px;&quot;&gt;has&lt;/font&gt;" style="shape=rhombus;double=1;perimeter=rhombusPerimeter;whiteSpace=wrap;html=1;align=center;rotation=90;fillColor=#eeeeee;strokeColor=#36393d;" parent="1" vertex="1">
          <mxGeometry x="70" y="290" width="80" height="40" as="geometry" />
        </mxCell>
        <mxCell id="7IuXafY-8ZTA0ZM4Ju-p-22" value="" style="endArrow=none;html=1;rounded=0;" parent="1" edge="1">
          <mxGeometry relative="1" as="geometry">
            <mxPoint x="110" y="350" as="sourcePoint" />
            <mxPoint x="110" y="420" as="targetPoint" />
          </mxGeometry>
        </mxCell>
        <mxCell id="CXZVb5-um_h7rUPkJkZq-14" value="" style="edgeStyle=orthogonalEdgeStyle;rounded=0;orthogonalLoop=1;jettySize=auto;html=1;" edge="1" parent="1" source="7IuXafY-8ZTA0ZM4Ju-p-25" target="K4kN4xh6zabSOPXQYrLH-1">
          <mxGeometry relative="1" as="geometry" />
        </mxCell>
        <mxCell id="7IuXafY-8ZTA0ZM4Ju-p-25" value="&lt;font style=&quot;font-size: 15px;&quot;&gt;has&lt;/font&gt;" style="shape=rhombus;double=1;perimeter=rhombusPerimeter;whiteSpace=wrap;html=1;align=center;rotation=90;fillColor=#eeeeee;strokeColor=#36393d;" parent="1" vertex="1">
          <mxGeometry x="65" y="570" width="90" height="40" as="geometry" />
        </mxCell>
        <mxCell id="7IuXafY-8ZTA0ZM4Ju-p-29" value="&lt;font style=&quot;font-size: 16px;&quot;&gt;store&lt;/font&gt;" style="whiteSpace=wrap;html=1;align=center;fillColor=#647687;strokeColor=#314354;fontColor=#ffffff;" parent="1" vertex="1">
          <mxGeometry x="60" y="720" width="120" height="50" as="geometry" />
        </mxCell>
        <mxCell id="7IuXafY-8ZTA0ZM4Ju-p-30" value="" style="endArrow=none;html=1;rounded=0;exitX=1;exitY=0.5;exitDx=0;exitDy=0;" parent="1" source="7IuXafY-8ZTA0ZM4Ju-p-29" target="7IuXafY-8ZTA0ZM4Ju-p-32" edge="1">
          <mxGeometry relative="1" as="geometry">
            <mxPoint x="180" y="680" as="sourcePoint" />
            <mxPoint x="200" y="670" as="targetPoint" />
            <Array as="points" />
          </mxGeometry>
        </mxCell>
        <mxCell id="7IuXafY-8ZTA0ZM4Ju-p-31" value="&lt;span style=&quot;font-size: 14px;&quot;&gt;ID&lt;/span&gt;" style="ellipse;whiteSpace=wrap;html=1;align=center;fontStyle=4;fillColor=#1ba1e2;fontColor=#ffffff;strokeColor=#006EAF;" parent="1" vertex="1">
          <mxGeometry x="20" y="60" width="70" height="50" as="geometry" />
        </mxCell>
        <mxCell id="7IuXafY-8ZTA0ZM4Ju-p-32" value="&lt;span style=&quot;font-size: 14px;&quot;&gt;ID&lt;/span&gt;" style="ellipse;whiteSpace=wrap;html=1;align=center;fontStyle=4;fillColor=#1ba1e2;fontColor=#ffffff;strokeColor=#006EAF;" parent="1" vertex="1">
          <mxGeometry x="210" y="710" width="70" height="40" as="geometry" />
        </mxCell>
        <mxCell id="7IuXafY-8ZTA0ZM4Ju-p-36" value="&lt;font style=&quot;font-size: 15px;&quot;&gt;product&lt;/font&gt;" style="whiteSpace=wrap;html=1;align=center;fillColor=#647687;strokeColor=#314354;fontColor=#ffffff;" parent="1" vertex="1">
          <mxGeometry x="1210" y="410" width="140" height="60" as="geometry" />
        </mxCell>
        <mxCell id="7IuXafY-8ZTA0ZM4Ju-p-43" value="&lt;font style=&quot;font-size: 14px;&quot;&gt;price&lt;/font&gt;" style="ellipse;whiteSpace=wrap;html=1;align=center;fillColor=#1ba1e2;fontColor=#ffffff;strokeColor=#006EAF;" parent="1" vertex="1">
          <mxGeometry x="1130" y="310" width="80" height="40" as="geometry" />
        </mxCell>
        <mxCell id="7IuXafY-8ZTA0ZM4Ju-p-44" value="&lt;font style=&quot;font-size: 14px;&quot;&gt;name&lt;/font&gt;" style="ellipse;whiteSpace=wrap;html=1;align=center;fillColor=#1ba1e2;fontColor=#ffffff;strokeColor=#006EAF;" parent="1" vertex="1">
          <mxGeometry x="1220" y="310" width="80" height="40" as="geometry" />
        </mxCell>
        <mxCell id="7IuXafY-8ZTA0ZM4Ju-p-45" value="" style="endArrow=none;html=1;rounded=0;entryX=0.5;entryY=0;entryDx=0;entryDy=0;exitX=0.5;exitY=1;exitDx=0;exitDy=0;" parent="1" source="7IuXafY-8ZTA0ZM4Ju-p-44" target="7IuXafY-8ZTA0ZM4Ju-p-36" edge="1">
          <mxGeometry relative="1" as="geometry">
            <mxPoint x="750" y="300" as="sourcePoint" />
            <mxPoint x="860" y="230" as="targetPoint" />
          </mxGeometry>
        </mxCell>
        <mxCell id="7IuXafY-8ZTA0ZM4Ju-p-46" value="&lt;span style=&quot;font-size: 14px;&quot;&gt;ID&lt;/span&gt;" style="ellipse;whiteSpace=wrap;html=1;align=center;fontStyle=4;fillColor=#1ba1e2;fontColor=#ffffff;strokeColor=#006EAF;" parent="1" vertex="1">
          <mxGeometry x="1310" y="310" width="80" height="40" as="geometry" />
        </mxCell>
        <mxCell id="7IuXafY-8ZTA0ZM4Ju-p-47" value="" style="endArrow=none;html=1;rounded=0;entryX=0.5;entryY=1;entryDx=0;entryDy=0;exitX=0.75;exitY=0;exitDx=0;exitDy=0;" parent="1" source="7IuXafY-8ZTA0ZM4Ju-p-36" target="7IuXafY-8ZTA0ZM4Ju-p-46" edge="1">
          <mxGeometry relative="1" as="geometry">
            <mxPoint x="700" y="410" as="sourcePoint" />
            <mxPoint x="730" y="410" as="targetPoint" />
          </mxGeometry>
        </mxCell>
        <mxCell id="7IuXafY-8ZTA0ZM4Ju-p-48" value="" style="endArrow=none;html=1;rounded=0;entryX=0;entryY=0.25;entryDx=0;entryDy=0;" parent="1" target="7IuXafY-8ZTA0ZM4Ju-p-10" edge="1">
          <mxGeometry relative="1" as="geometry">
            <mxPoint x="40" y="180" as="sourcePoint" />
            <mxPoint x="100" y="220" as="targetPoint" />
            <Array as="points">
              <mxPoint x="40" y="138" />
            </Array>
          </mxGeometry>
        </mxCell>
        <mxCell id="7IuXafY-8ZTA0ZM4Ju-p-49" value="last_name" style="ellipse;whiteSpace=wrap;html=1;align=center;fillColor=#1ba1e2;fontColor=#ffffff;strokeColor=#006EAF;rotation=-90;" parent="1" vertex="1">
          <mxGeometry x="-10" y="200" width="100" height="40" as="geometry" />
        </mxCell>
        <mxCell id="7IuXafY-8ZTA0ZM4Ju-p-51" value="&lt;font style=&quot;font-size: 14px;&quot;&gt;Purchase Invoice&lt;/font&gt;" style="whiteSpace=wrap;html=1;align=center;fillColor=#647687;fontColor=#ffffff;strokeColor=#314354;" parent="1" vertex="1">
          <mxGeometry x="827" y="570" width="195" height="70" as="geometry" />
        </mxCell>
        <mxCell id="7IuXafY-8ZTA0ZM4Ju-p-52" value="Tracking Code" style="ellipse;whiteSpace=wrap;html=1;align=center;fontStyle=4;fillColor=#1ba1e2;fontColor=#ffffff;strokeColor=#006EAF;" parent="1" vertex="1">
          <mxGeometry x="827" y="698.75" width="100" height="40" as="geometry" />
        </mxCell>
        <mxCell id="7IuXafY-8ZTA0ZM4Ju-p-55" value="" style="endArrow=none;html=1;rounded=0;entryX=0.5;entryY=0;entryDx=0;entryDy=0;exitX=0.25;exitY=1;exitDx=0;exitDy=0;" parent="1" source="7IuXafY-8ZTA0ZM4Ju-p-51" target="7IuXafY-8ZTA0ZM4Ju-p-52" edge="1">
          <mxGeometry relative="1" as="geometry">
            <mxPoint x="425" y="590" as="sourcePoint" />
            <mxPoint x="425" y="621" as="targetPoint" />
            <Array as="points" />
          </mxGeometry>
        </mxCell>
        <mxCell id="7IuXafY-8ZTA0ZM4Ju-p-56" value="&lt;font style=&quot;font-size: 15px;&quot;&gt;time&lt;/font&gt;" style="ellipse;whiteSpace=wrap;html=1;align=center;fillColor=#1ba1e2;fontColor=#ffffff;strokeColor=#006EAF;" parent="1" vertex="1">
          <mxGeometry x="1060" y="585" width="100" height="40" as="geometry" />
        </mxCell>
        <mxCell id="7IuXafY-8ZTA0ZM4Ju-p-58" value="" style="endArrow=none;html=1;rounded=0;exitX=0.5;exitY=0;exitDx=0;exitDy=0;entryX=0.75;entryY=1;entryDx=0;entryDy=0;" parent="1" source="7IuXafY-8ZTA0ZM4Ju-p-59" target="K-ahxIOYB4QELCuEIj93-1" edge="1">
          <mxGeometry relative="1" as="geometry">
            <mxPoint x="460" y="540" as="sourcePoint" />
            <mxPoint x="510" y="540" as="targetPoint" />
          </mxGeometry>
        </mxCell>
        <mxCell id="7IuXafY-8ZTA0ZM4Ju-p-59" value="customer_ID" style="ellipse;whiteSpace=wrap;html=1;align=center;fillColor=#1ba1e2;fontColor=#ffffff;strokeColor=#006EAF;" parent="1" vertex="1">
          <mxGeometry x="600" y="550" width="80" height="50" as="geometry" />
        </mxCell>
        <mxCell id="7IuXafY-8ZTA0ZM4Ju-p-61" value="" style="endArrow=none;html=1;rounded=0;exitX=0.5;exitY=0;exitDx=0;exitDy=0;entryX=0.5;entryY=1;entryDx=0;entryDy=0;" parent="1" source="7IuXafY-8ZTA0ZM4Ju-p-62" target="K-ahxIOYB4QELCuEIj93-1" edge="1">
          <mxGeometry relative="1" as="geometry">
            <mxPoint x="460" y="580" as="sourcePoint" />
            <mxPoint x="510" y="580" as="targetPoint" />
            <Array as="points">
              <mxPoint x="545" y="530" />
              <mxPoint x="585" y="530" />
            </Array>
          </mxGeometry>
        </mxCell>
        <mxCell id="7IuXafY-8ZTA0ZM4Ju-p-62" value="purchase invoice_ID" style="ellipse;whiteSpace=wrap;html=1;align=center;fillColor=#1ba1e2;fontColor=#ffffff;strokeColor=#006EAF;" parent="1" vertex="1">
          <mxGeometry x="500" y="555" width="90" height="40" as="geometry" />
        </mxCell>
        <mxCell id="7IuXafY-8ZTA0ZM4Ju-p-64" value="ID" style="ellipse;whiteSpace=wrap;html=1;align=center;fillColor=#1ba1e2;fontColor=#ffffff;strokeColor=#006EAF;" parent="1" vertex="1">
          <mxGeometry x="940" y="692.5" width="70" height="40" as="geometry" />
        </mxCell>
        <mxCell id="7IuXafY-8ZTA0ZM4Ju-p-69" value="" style="endArrow=none;html=1;rounded=0;entryX=0.25;entryY=0;entryDx=0;entryDy=0;exitX=0.5;exitY=1;exitDx=0;exitDy=0;" parent="1" source="7IuXafY-8ZTA0ZM4Ju-p-43" target="7IuXafY-8ZTA0ZM4Ju-p-36" edge="1">
          <mxGeometry relative="1" as="geometry">
            <mxPoint x="650" y="310" as="sourcePoint" />
            <mxPoint x="660" y="360" as="targetPoint" />
          </mxGeometry>
        </mxCell>
        <mxCell id="7IuXafY-8ZTA0ZM4Ju-p-73" value="discount code" style="whiteSpace=wrap;html=1;align=center;fillColor=#647687;fontColor=#ffffff;strokeColor=#314354;" parent="1" vertex="1">
          <mxGeometry x="507.5" y="250" width="135" height="50" as="geometry" />
        </mxCell>
        <mxCell id="7IuXafY-8ZTA0ZM4Ju-p-74" value="total price" style="ellipse;whiteSpace=wrap;html=1;align=center;fillColor=#1ba1e2;fontColor=#ffffff;strokeColor=#006EAF;" parent="1" vertex="1">
          <mxGeometry x="414" y="555" width="80" height="40" as="geometry" />
        </mxCell>
        <mxCell id="7IuXafY-8ZTA0ZM4Ju-p-75" value="" style="endArrow=none;html=1;rounded=0;exitX=0.5;exitY=0;exitDx=0;exitDy=0;entryX=0.25;entryY=1;entryDx=0;entryDy=0;" parent="1" source="7IuXafY-8ZTA0ZM4Ju-p-74" target="K-ahxIOYB4QELCuEIj93-1" edge="1">
          <mxGeometry relative="1" as="geometry">
            <mxPoint x="270" y="569" as="sourcePoint" />
            <mxPoint x="320" y="569" as="targetPoint" />
            <Array as="points">
              <mxPoint x="454" y="510" />
              <mxPoint x="530" y="510" />
            </Array>
          </mxGeometry>
        </mxCell>
        <mxCell id="7IuXafY-8ZTA0ZM4Ju-p-76" value="" style="shape=link;html=1;rounded=0;entryX=0.924;entryY=0.52;entryDx=0;entryDy=0;entryPerimeter=0;" parent="1" target="7IuXafY-8ZTA0ZM4Ju-p-25" edge="1">
          <mxGeometry relative="1" as="geometry">
            <mxPoint x="110" y="720" as="sourcePoint" />
            <mxPoint x="270" y="720" as="targetPoint" />
          </mxGeometry>
        </mxCell>
        <mxCell id="7IuXafY-8ZTA0ZM4Ju-p-77" value="" style="resizable=0;html=1;whiteSpace=wrap;align=right;verticalAlign=bottom;" parent="7IuXafY-8ZTA0ZM4Ju-p-76" connectable="0" vertex="1">
          <mxGeometry x="1" relative="1" as="geometry" />
        </mxCell>
        <mxCell id="7IuXafY-8ZTA0ZM4Ju-p-83" value="&lt;font style=&quot;font-size: 14px;&quot;&gt;name&lt;/font&gt;" style="ellipse;whiteSpace=wrap;html=1;align=center;fillColor=#1ba1e2;fontColor=#ffffff;strokeColor=#006EAF;" parent="1" vertex="1">
          <mxGeometry x="70" y="800" width="100" height="40" as="geometry" />
        </mxCell>
        <mxCell id="7IuXafY-8ZTA0ZM4Ju-p-84" value="" style="endArrow=none;html=1;rounded=0;entryX=0.5;entryY=0;entryDx=0;entryDy=0;exitX=0.5;exitY=1;exitDx=0;exitDy=0;" parent="1" source="7IuXafY-8ZTA0ZM4Ju-p-29" target="7IuXafY-8ZTA0ZM4Ju-p-83" edge="1">
          <mxGeometry relative="1" as="geometry">
            <mxPoint x="110" y="770" as="sourcePoint" />
            <mxPoint x="270" y="770" as="targetPoint" />
          </mxGeometry>
        </mxCell>
        <mxCell id="7IuXafY-8ZTA0ZM4Ju-p-93" value="" style="endArrow=none;html=1;rounded=0;exitX=0.5;exitY=1;exitDx=0;exitDy=0;" parent="1" source="7IuXafY-8ZTA0ZM4Ju-p-94" edge="1">
          <mxGeometry relative="1" as="geometry">
            <mxPoint x="329.5" y="255" as="sourcePoint" />
            <mxPoint x="579" y="247" as="targetPoint" />
          </mxGeometry>
        </mxCell>
        <mxCell id="7IuXafY-8ZTA0ZM4Ju-p-94" value="&lt;font style=&quot;font-size: 14px;&quot;&gt;value&lt;/font&gt;" style="ellipse;whiteSpace=wrap;html=1;align=center;fillColor=#1ba1e2;fontColor=#ffffff;strokeColor=#006EAF;" parent="1" vertex="1">
          <mxGeometry x="540" y="180" width="80" height="30" as="geometry" />
        </mxCell>
        <mxCell id="7IuXafY-8ZTA0ZM4Ju-p-95" value="&lt;font style=&quot;font-size: 16px;&quot;&gt;time&lt;/font&gt;" style="ellipse;whiteSpace=wrap;html=1;align=center;fillColor=#1ba1e2;fontColor=#ffffff;strokeColor=#006EAF;" parent="1" vertex="1">
          <mxGeometry x="1150" y="680" width="110" height="52.5" as="geometry" />
        </mxCell>
        <mxCell id="7IuXafY-8ZTA0ZM4Ju-p-97" value="date" style="ellipse;whiteSpace=wrap;html=1;align=center;fillColor=#1ba1e2;fontColor=#ffffff;strokeColor=#006EAF;" parent="1" vertex="1">
          <mxGeometry x="1030" y="685" width="100" height="55" as="geometry" />
        </mxCell>
        <mxCell id="K-ahxIOYB4QELCuEIj93-1" value="&lt;font style=&quot;font-size: 15px;&quot;&gt;Cart&lt;/font&gt;" style="whiteSpace=wrap;html=1;align=center;fillColor=#647687;fontColor=#ffffff;strokeColor=#314354;" parent="1" vertex="1">
          <mxGeometry x="480" y="410" width="210" height="60" as="geometry" />
        </mxCell>
        <mxCell id="K-ahxIOYB4QELCuEIj93-4" value="belong" style="shape=rhombus;perimeter=rhombusPerimeter;whiteSpace=wrap;html=1;align=center;fillColor=#eeeeee;strokeColor=#36393d;" parent="1" vertex="1">
          <mxGeometry x="820" y="847.5" width="130" height="85" as="geometry" />
        </mxCell>
        <mxCell id="K-ahxIOYB4QELCuEIj93-7" value="" style="endArrow=none;html=1;rounded=0;entryX=0;entryY=0.25;entryDx=0;entryDy=0;" parent="1" source="K-ahxIOYB4QELCuEIj93-9" target="K-ahxIOYB4QELCuEIj93-1" edge="1">
          <mxGeometry relative="1" as="geometry">
            <mxPoint x="210" y="190" as="sourcePoint" />
            <mxPoint x="230" y="420" as="targetPoint" />
            <Array as="points">
              <mxPoint x="410" y="425" />
            </Array>
          </mxGeometry>
        </mxCell>
        <mxCell id="CXZVb5-um_h7rUPkJkZq-24" value="" style="edgeStyle=orthogonalEdgeStyle;rounded=0;orthogonalLoop=1;jettySize=auto;html=1;entryX=1.008;entryY=0.412;entryDx=0;entryDy=0;entryPerimeter=0;exitX=0.058;exitY=0.486;exitDx=0;exitDy=0;exitPerimeter=0;" edge="1" parent="1" source="K-ahxIOYB4QELCuEIj93-9" target="7IuXafY-8ZTA0ZM4Ju-p-10">
          <mxGeometry relative="1" as="geometry">
            <mxPoint x="410" y="190" as="sourcePoint" />
            <Array as="points">
              <mxPoint x="411" y="190" />
              <mxPoint x="320" y="190" />
              <mxPoint x="320" y="149" />
            </Array>
          </mxGeometry>
        </mxCell>
        <mxCell id="K-ahxIOYB4QELCuEIj93-9" value="has" style="shape=rhombus;perimeter=rhombusPerimeter;whiteSpace=wrap;html=1;align=center;fillColor=#eeeeee;strokeColor=#36393d;rotation=90;" parent="1" vertex="1">
          <mxGeometry x="355" y="220" width="110" height="60" as="geometry" />
        </mxCell>
        <mxCell id="K-ahxIOYB4QELCuEIj93-12" value="" style="endArrow=none;html=1;rounded=0;exitX=0.5;exitY=0;exitDx=0;exitDy=0;entryX=0.75;entryY=1;entryDx=0;entryDy=0;" parent="1" source="7IuXafY-8ZTA0ZM4Ju-p-64" target="7IuXafY-8ZTA0ZM4Ju-p-51" edge="1">
          <mxGeometry relative="1" as="geometry">
            <mxPoint x="570" y="650" as="sourcePoint" />
            <mxPoint x="720" y="650" as="targetPoint" />
          </mxGeometry>
        </mxCell>
        <mxCell id="K-ahxIOYB4QELCuEIj93-17" value="redeem" style="shape=rhombus;perimeter=rhombusPerimeter;whiteSpace=wrap;html=1;align=center;fillColor=#eeeeee;strokeColor=#36393d;" parent="1" vertex="1">
          <mxGeometry x="530" y="330" width="90" height="50" as="geometry" />
        </mxCell>
        <mxCell id="K-ahxIOYB4QELCuEIj93-18" value="" style="endArrow=none;html=1;rounded=0;exitX=0.5;exitY=0;exitDx=0;exitDy=0;entryX=0.5;entryY=1;entryDx=0;entryDy=0;" parent="1" source="K-ahxIOYB4QELCuEIj93-17" target="7IuXafY-8ZTA0ZM4Ju-p-73" edge="1">
          <mxGeometry relative="1" as="geometry">
            <mxPoint x="350" y="340" as="sourcePoint" />
            <mxPoint x="500" y="340" as="targetPoint" />
          </mxGeometry>
        </mxCell>
        <mxCell id="CXZVb5-um_h7rUPkJkZq-23" value="" style="edgeStyle=orthogonalEdgeStyle;rounded=0;orthogonalLoop=1;jettySize=auto;html=1;entryX=0.999;entryY=0.886;entryDx=0;entryDy=0;entryPerimeter=0;" edge="1" parent="1" source="-hVGppCNPM3_fdbBqAaz-1" target="K-ahxIOYB4QELCuEIj93-1">
          <mxGeometry relative="1" as="geometry" />
        </mxCell>
        <mxCell id="-hVGppCNPM3_fdbBqAaz-1" value="purchase" style="shape=rhombus;perimeter=rhombusPerimeter;whiteSpace=wrap;html=1;align=center;fillColor=#eeeeee;strokeColor=#36393d;" parent="1" vertex="1">
          <mxGeometry x="680" y="510" width="120" height="60" as="geometry" />
        </mxCell>
        <mxCell id="K4kN4xh6zabSOPXQYrLH-1" value="&lt;font style=&quot;font-size: 17px;&quot;&gt;address&lt;/font&gt;" style="whiteSpace=wrap;html=1;align=center;fillColor=#647687;fontColor=#ffffff;strokeColor=#314354;" parent="1" vertex="1">
          <mxGeometry x="55" y="420" width="100" height="50" as="geometry" />
        </mxCell>
        <mxCell id="K4kN4xh6zabSOPXQYrLH-2" value="" style="shape=link;html=1;rounded=0;entryX=0.997;entryY=0.527;entryDx=0;entryDy=0;exitX=0.478;exitY=0.009;exitDx=0;exitDy=0;exitPerimeter=0;entryPerimeter=0;" parent="1" source="7IuXafY-8ZTA0ZM4Ju-p-51" target="-hVGppCNPM3_fdbBqAaz-1" edge="1">
          <mxGeometry relative="1" as="geometry">
            <mxPoint x="700" y="550" as="sourcePoint" />
            <mxPoint x="425" y="600" as="targetPoint" />
            <Array as="points">
              <mxPoint x="920" y="540" />
            </Array>
          </mxGeometry>
        </mxCell>
        <mxCell id="K4kN4xh6zabSOPXQYrLH-3" value="" style="resizable=0;html=1;whiteSpace=wrap;align=right;verticalAlign=bottom;" parent="K4kN4xh6zabSOPXQYrLH-2" connectable="0" vertex="1">
          <mxGeometry x="1" relative="1" as="geometry" />
        </mxCell>
        <mxCell id="K4kN4xh6zabSOPXQYrLH-4" value="&lt;font style=&quot;font-size: 14px;&quot;&gt;inventory&lt;/font&gt;" style="whiteSpace=wrap;html=1;align=center;fillColor=#647687;fontColor=#ffffff;strokeColor=#314354;" parent="1" vertex="1">
          <mxGeometry x="445" y="865" width="140" height="50" as="geometry" />
        </mxCell>
        <mxCell id="K4kN4xh6zabSOPXQYrLH-5" value="" style="shape=link;html=1;rounded=0;width=-4;exitX=1;exitY=1;exitDx=0;exitDy=0;entryX=0;entryY=0.5;entryDx=0;entryDy=0;" parent="1" source="7IuXafY-8ZTA0ZM4Ju-p-29" target="K4kN4xh6zabSOPXQYrLH-8" edge="1">
          <mxGeometry relative="1" as="geometry">
            <mxPoint x="340" y="600" as="sourcePoint" />
            <mxPoint x="230" y="840" as="targetPoint" />
            <Array as="points">
              <mxPoint x="250" y="770" />
            </Array>
          </mxGeometry>
        </mxCell>
        <mxCell id="K4kN4xh6zabSOPXQYrLH-6" value="" style="resizable=0;html=1;whiteSpace=wrap;align=right;verticalAlign=bottom;" parent="K4kN4xh6zabSOPXQYrLH-5" connectable="0" vertex="1">
          <mxGeometry x="1" relative="1" as="geometry" />
        </mxCell>
        <mxCell id="K4kN4xh6zabSOPXQYrLH-8" value="&lt;font style=&quot;font-size: 14px;&quot;&gt;has&lt;/font&gt;" style="shape=rhombus;perimeter=rhombusPerimeter;whiteSpace=wrap;html=1;align=center;fillColor=#eeeeee;strokeColor=#36393d;rotation=0;" parent="1" vertex="1">
          <mxGeometry x="250" y="865" width="100" height="50" as="geometry" />
        </mxCell>
        <mxCell id="K4kN4xh6zabSOPXQYrLH-12" value="" style="endArrow=none;html=1;rounded=0;exitX=1;exitY=0.5;exitDx=0;exitDy=0;entryX=0;entryY=0.5;entryDx=0;entryDy=0;" parent="1" source="K4kN4xh6zabSOPXQYrLH-8" target="K4kN4xh6zabSOPXQYrLH-4" edge="1">
          <mxGeometry relative="1" as="geometry">
            <mxPoint x="340" y="900" as="sourcePoint" />
            <mxPoint x="180" y="970" as="targetPoint" />
          </mxGeometry>
        </mxCell>
        <mxCell id="K4kN4xh6zabSOPXQYrLH-14" value="&lt;span style=&quot;font-size: 14px;&quot;&gt;Store_ID&lt;/span&gt;" style="ellipse;whiteSpace=wrap;html=1;align=center;fillColor=#1ba1e2;strokeColor=#006EAF;fontColor=#ffffff;" parent="1" vertex="1">
          <mxGeometry x="400" y="940" width="90" height="40" as="geometry" />
        </mxCell>
        <mxCell id="K4kN4xh6zabSOPXQYrLH-15" value="&lt;span style=&quot;font-size: 15px;&quot;&gt;product_ID&lt;/span&gt;" style="ellipse;whiteSpace=wrap;html=1;align=center;fillColor=#1ba1e2;fontColor=#ffffff;strokeColor=#006EAF;" parent="1" vertex="1">
          <mxGeometry x="500" y="940" width="100" height="40" as="geometry" />
        </mxCell>
        <mxCell id="K4kN4xh6zabSOPXQYrLH-16" value="" style="endArrow=none;html=1;rounded=0;entryX=0.5;entryY=0;entryDx=0;entryDy=0;exitX=0.75;exitY=1;exitDx=0;exitDy=0;" parent="1" source="K4kN4xh6zabSOPXQYrLH-4" target="K4kN4xh6zabSOPXQYrLH-15" edge="1">
          <mxGeometry relative="1" as="geometry">
            <mxPoint x="550" y="870" as="sourcePoint" />
            <mxPoint x="710" y="880" as="targetPoint" />
          </mxGeometry>
        </mxCell>
        <mxCell id="K4kN4xh6zabSOPXQYrLH-17" value="" style="endArrow=none;html=1;rounded=0;exitX=0.25;exitY=1;exitDx=0;exitDy=0;entryX=0.5;entryY=0;entryDx=0;entryDy=0;" parent="1" source="K4kN4xh6zabSOPXQYrLH-4" target="K4kN4xh6zabSOPXQYrLH-14" edge="1">
          <mxGeometry relative="1" as="geometry">
            <mxPoint x="550" y="880" as="sourcePoint" />
            <mxPoint x="710" y="880" as="targetPoint" />
          </mxGeometry>
        </mxCell>
        <mxCell id="K4kN4xh6zabSOPXQYrLH-18" value="&lt;font style=&quot;font-size: 14px;&quot;&gt;number&lt;/font&gt;" style="ellipse;whiteSpace=wrap;html=1;align=center;fillColor=#1ba1e2;fontColor=#ffffff;strokeColor=#006EAF;" parent="1" vertex="1">
          <mxGeometry x="465" y="800" width="100" height="40" as="geometry" />
        </mxCell>
        <mxCell id="K4kN4xh6zabSOPXQYrLH-19" value="" style="endArrow=none;html=1;rounded=0;exitX=0.5;exitY=0;exitDx=0;exitDy=0;entryX=0.5;entryY=1;entryDx=0;entryDy=0;" parent="1" source="K4kN4xh6zabSOPXQYrLH-4" target="K4kN4xh6zabSOPXQYrLH-18" edge="1">
          <mxGeometry relative="1" as="geometry">
            <mxPoint x="550" y="880" as="sourcePoint" />
            <mxPoint x="710" y="880" as="targetPoint" />
          </mxGeometry>
        </mxCell>
        <mxCell id="CXZVb5-um_h7rUPkJkZq-25" value="" style="edgeStyle=orthogonalEdgeStyle;rounded=0;orthogonalLoop=1;jettySize=auto;html=1;" edge="1" parent="1" source="K4kN4xh6zabSOPXQYrLH-22" target="K-ahxIOYB4QELCuEIj93-1">
          <mxGeometry relative="1" as="geometry" />
        </mxCell>
        <mxCell id="K4kN4xh6zabSOPXQYrLH-22" value="has" style="shape=rhombus;perimeter=rhombusPerimeter;whiteSpace=wrap;html=1;align=center;fillColor=#eeeeee;strokeColor=#36393d;" parent="1" vertex="1">
          <mxGeometry x="750" y="400" width="110" height="60" as="geometry" />
        </mxCell>
        <mxCell id="K4kN4xh6zabSOPXQYrLH-26" value="&lt;font style=&quot;font-size: 16px;&quot;&gt;cart item&lt;/font&gt;" style="shape=ext;margin=3;double=1;whiteSpace=wrap;html=1;align=center;fillColor=#8AA3BA;strokeColor=#314354;fontColor=#ffffff;" parent="1" vertex="1">
          <mxGeometry x="750" y="290" width="150" height="50" as="geometry" />
        </mxCell>
        <mxCell id="K4kN4xh6zabSOPXQYrLH-28" value="" style="endArrow=none;html=1;rounded=0;exitX=0.996;exitY=0.512;exitDx=0;exitDy=0;exitPerimeter=0;entryX=0.026;entryY=0.531;entryDx=0;entryDy=0;entryPerimeter=0;" parent="1" source="K4kN4xh6zabSOPXQYrLH-4" target="K-ahxIOYB4QELCuEIj93-4" edge="1">
          <mxGeometry relative="1" as="geometry">
            <mxPoint x="670" y="860" as="sourcePoint" />
            <mxPoint x="828.6800000000003" y="891.54" as="targetPoint" />
          </mxGeometry>
        </mxCell>
        <mxCell id="K4kN4xh6zabSOPXQYrLH-30" value="" style="shape=link;html=1;rounded=0;entryX=0.571;entryY=1;entryDx=0;entryDy=0;entryPerimeter=0;exitX=0.99;exitY=0.5;exitDx=0;exitDy=0;exitPerimeter=0;" parent="1" source="K-ahxIOYB4QELCuEIj93-4" target="7IuXafY-8ZTA0ZM4Ju-p-36" edge="1">
          <mxGeometry relative="1" as="geometry">
            <mxPoint x="950" y="887" as="sourcePoint" />
            <mxPoint x="940" y="490" as="targetPoint" />
            <Array as="points">
              <mxPoint x="1290" y="887" />
              <mxPoint x="1290" y="650" />
            </Array>
          </mxGeometry>
        </mxCell>
        <mxCell id="K4kN4xh6zabSOPXQYrLH-31" value="" style="resizable=0;html=1;whiteSpace=wrap;align=right;verticalAlign=bottom;" parent="K4kN4xh6zabSOPXQYrLH-30" connectable="0" vertex="1">
          <mxGeometry x="1" relative="1" as="geometry" />
        </mxCell>
        <mxCell id="K4kN4xh6zabSOPXQYrLH-33" value="" style="endArrow=none;html=1;rounded=0;entryX=-0.033;entryY=0.483;entryDx=0;entryDy=0;entryPerimeter=0;" parent="1" source="7IuXafY-8ZTA0ZM4Ju-p-51" target="7IuXafY-8ZTA0ZM4Ju-p-56" edge="1">
          <mxGeometry relative="1" as="geometry">
            <mxPoint x="780" y="609" as="sourcePoint" />
            <mxPoint x="890" y="500" as="targetPoint" />
          </mxGeometry>
        </mxCell>
        <mxCell id="K4kN4xh6zabSOPXQYrLH-38" value="" style="endArrow=none;html=1;rounded=0;entryX=0.587;entryY=0.042;entryDx=0;entryDy=0;entryPerimeter=0;" parent="1" target="7IuXafY-8ZTA0ZM4Ju-p-97" edge="1">
          <mxGeometry relative="1" as="geometry">
            <mxPoint x="1090" y="625" as="sourcePoint" />
            <mxPoint x="1250" y="625" as="targetPoint" />
          </mxGeometry>
        </mxCell>
        <mxCell id="K4kN4xh6zabSOPXQYrLH-39" value="" style="endArrow=none;html=1;rounded=0;" parent="1" edge="1">
          <mxGeometry relative="1" as="geometry">
            <mxPoint x="1125" y="623.33" as="sourcePoint" />
            <mxPoint x="1200" y="680" as="targetPoint" />
            <Array as="points">
              <mxPoint x="1125" y="650" />
              <mxPoint x="1200" y="650" />
            </Array>
          </mxGeometry>
        </mxCell>
        <mxCell id="K4kN4xh6zabSOPXQYrLH-40" value="country" style="ellipse;whiteSpace=wrap;html=1;align=center;fillColor=#1ba1e2;fontColor=#ffffff;strokeColor=#006EAF;" parent="1" vertex="1">
          <mxGeometry x="120" y="360" width="100" height="40" as="geometry" />
        </mxCell>
        <mxCell id="K4kN4xh6zabSOPXQYrLH-41" value="city" style="ellipse;whiteSpace=wrap;html=1;align=center;fillColor=#1ba1e2;fontColor=#ffffff;strokeColor=#006EAF;" parent="1" vertex="1">
          <mxGeometry x="220" y="390" width="100" height="40" as="geometry" />
        </mxCell>
        <mxCell id="K4kN4xh6zabSOPXQYrLH-42" value="postal code" style="ellipse;whiteSpace=wrap;html=1;align=center;fillColor=#1ba1e2;fontColor=#ffffff;strokeColor=#006EAF;" parent="1" vertex="1">
          <mxGeometry x="250" y="440" width="100" height="40" as="geometry" />
        </mxCell>
        <mxCell id="K4kN4xh6zabSOPXQYrLH-43" value="&lt;font style=&quot;font-size: 14px;&quot;&gt;ID&lt;/font&gt;" style="ellipse;whiteSpace=wrap;html=1;align=center;fillColor=#1ba1e2;fontColor=#ffffff;strokeColor=#006EAF;" parent="1" vertex="1">
          <mxGeometry x="210" y="490" width="100" height="40" as="geometry" />
        </mxCell>
        <mxCell id="K4kN4xh6zabSOPXQYrLH-44" value="exacte address" style="ellipse;whiteSpace=wrap;html=1;align=center;fillColor=#1ba1e2;fontColor=#ffffff;strokeColor=#006EAF;" parent="1" vertex="1">
          <mxGeometry x="170" y="545" width="100" height="40" as="geometry" />
        </mxCell>
        <mxCell id="K4kN4xh6zabSOPXQYrLH-46" value="" style="endArrow=none;html=1;rounded=0;entryX=0.18;entryY=0.917;entryDx=0;entryDy=0;entryPerimeter=0;" parent="1" target="K4kN4xh6zabSOPXQYrLH-40" edge="1">
          <mxGeometry relative="1" as="geometry">
            <mxPoint x="120" y="420" as="sourcePoint" />
            <mxPoint x="190" y="420" as="targetPoint" />
            <Array as="points" />
          </mxGeometry>
        </mxCell>
        <mxCell id="K4kN4xh6zabSOPXQYrLH-48" value="" style="endArrow=none;html=1;rounded=0;exitX=1.003;exitY=0.733;exitDx=0;exitDy=0;exitPerimeter=0;" parent="1" source="K4kN4xh6zabSOPXQYrLH-1" edge="1">
          <mxGeometry relative="1" as="geometry">
            <mxPoint x="155" y="450" as="sourcePoint" />
            <mxPoint x="250" y="460" as="targetPoint" />
          </mxGeometry>
        </mxCell>
        <mxCell id="K4kN4xh6zabSOPXQYrLH-50" value="" style="endArrow=none;html=1;rounded=0;" parent="1" edge="1">
          <mxGeometry relative="1" as="geometry">
            <mxPoint x="155" y="440" as="sourcePoint" />
            <mxPoint x="230" y="420" as="targetPoint" />
            <Array as="points">
              <mxPoint x="155" y="420" />
            </Array>
          </mxGeometry>
        </mxCell>
        <mxCell id="K4kN4xh6zabSOPXQYrLH-51" value="" style="endArrow=none;html=1;rounded=0;entryX=0;entryY=0.467;entryDx=0;entryDy=0;entryPerimeter=0;" parent="1" target="K4kN4xh6zabSOPXQYrLH-43" edge="1">
          <mxGeometry relative="1" as="geometry">
            <mxPoint x="155" y="470" as="sourcePoint" />
            <mxPoint x="315" y="470" as="targetPoint" />
            <Array as="points" />
          </mxGeometry>
        </mxCell>
        <mxCell id="K4kN4xh6zabSOPXQYrLH-52" value="" style="endArrow=none;html=1;rounded=0;" parent="1" target="K4kN4xh6zabSOPXQYrLH-44" edge="1">
          <mxGeometry relative="1" as="geometry">
            <mxPoint x="130" y="468.33" as="sourcePoint" />
            <mxPoint x="290" y="468.33" as="targetPoint" />
            <Array as="points">
              <mxPoint x="170" y="510" />
            </Array>
          </mxGeometry>
        </mxCell>
        <mxCell id="K4kN4xh6zabSOPXQYrLH-53" value="address_ID" style="ellipse;whiteSpace=wrap;html=1;align=center;fillColor=#1ba1e2;fontColor=#ffffff;strokeColor=#006EAF;" parent="1" vertex="1">
          <mxGeometry x="940" y="470" width="100" height="40" as="geometry" />
        </mxCell>
        <mxCell id="K4kN4xh6zabSOPXQYrLH-54" value="" style="endArrow=none;html=1;rounded=0;exitX=0.802;exitY=0;exitDx=0;exitDy=0;exitPerimeter=0;" parent="1" source="7IuXafY-8ZTA0ZM4Ju-p-51" edge="1">
          <mxGeometry relative="1" as="geometry">
            <mxPoint x="820" y="510" as="sourcePoint" />
            <mxPoint x="980" y="510" as="targetPoint" />
          </mxGeometry>
        </mxCell>
        <mxCell id="K4kN4xh6zabSOPXQYrLH-55" value="product_ID" style="ellipse;whiteSpace=wrap;html=1;align=center;fillColor=#1ba1e2;fontColor=#ffffff;strokeColor=#006EAF;" parent="1" vertex="1">
          <mxGeometry x="860" y="210" width="100" height="40" as="geometry" />
        </mxCell>
        <mxCell id="K4kN4xh6zabSOPXQYrLH-56" value="address_ID" style="ellipse;whiteSpace=wrap;html=1;align=center;fillColor=#1ba1e2;fontColor=#ffffff;strokeColor=#006EAF;" parent="1" vertex="1">
          <mxGeometry x="170" y="230" width="100" height="40" as="geometry" />
        </mxCell>
        <mxCell id="K4kN4xh6zabSOPXQYrLH-57" value="" style="endArrow=none;html=1;rounded=0;" parent="1" target="K4kN4xh6zabSOPXQYrLH-56" edge="1">
          <mxGeometry relative="1" as="geometry">
            <mxPoint x="220" y="190" as="sourcePoint" />
            <mxPoint x="380" y="190" as="targetPoint" />
          </mxGeometry>
        </mxCell>
        <mxCell id="K4kN4xh6zabSOPXQYrLH-60" value="" style="shape=link;html=1;rounded=0;width=-4;" parent="1" edge="1">
          <mxGeometry relative="1" as="geometry">
            <mxPoint x="805" y="398" as="sourcePoint" />
            <mxPoint x="805" y="340" as="targetPoint" />
          </mxGeometry>
        </mxCell>
        <mxCell id="K4kN4xh6zabSOPXQYrLH-61" value="" style="resizable=0;html=1;whiteSpace=wrap;align=right;verticalAlign=bottom;" parent="K4kN4xh6zabSOPXQYrLH-60" connectable="0" vertex="1">
          <mxGeometry x="1" relative="1" as="geometry" />
        </mxCell>
        <mxCell id="CXZVb5-um_h7rUPkJkZq-21" value="" style="edgeStyle=orthogonalEdgeStyle;rounded=0;orthogonalLoop=1;jettySize=auto;html=1;" edge="1" parent="1" source="K4kN4xh6zabSOPXQYrLH-63">
          <mxGeometry relative="1" as="geometry">
            <mxPoint x="120" y="470" as="targetPoint" />
            <Array as="points">
              <mxPoint x="150" y="632" />
              <mxPoint x="150" y="550" />
              <mxPoint x="120" y="550" />
              <mxPoint x="120" y="470" />
            </Array>
          </mxGeometry>
        </mxCell>
        <mxCell id="K4kN4xh6zabSOPXQYrLH-63" value="&lt;font style=&quot;font-size: 14px;&quot;&gt;has&lt;/font&gt;" style="shape=rhombus;perimeter=rhombusPerimeter;whiteSpace=wrap;html=1;align=center;fillColor=#eeeeee;strokeColor=#36393d;" parent="1" vertex="1">
          <mxGeometry x="284" y="595" width="130" height="75" as="geometry" />
        </mxCell>
        <mxCell id="K4kN4xh6zabSOPXQYrLH-64" value="" style="endArrow=none;html=1;rounded=0;entryX=0.015;entryY=0.881;entryDx=0;entryDy=0;entryPerimeter=0;" parent="1" target="7IuXafY-8ZTA0ZM4Ju-p-51" edge="1">
          <mxGeometry relative="1" as="geometry">
            <mxPoint x="414" y="631.67" as="sourcePoint" />
            <mxPoint x="574" y="631.67" as="targetPoint" />
          </mxGeometry>
        </mxCell>
        <mxCell id="K4kN4xh6zabSOPXQYrLH-65" value="&lt;font style=&quot;font-size: 15px;&quot;&gt;ID&lt;/font&gt;" style="ellipse;whiteSpace=wrap;html=1;align=center;fillColor=#1ba1e2;fontColor=#ffffff;strokeColor=#006EAF;" parent="1" vertex="1">
          <mxGeometry x="780" y="170" width="100" height="40" as="geometry" />
        </mxCell>
        <mxCell id="K4kN4xh6zabSOPXQYrLH-66" value="cart_ID" style="ellipse;whiteSpace=wrap;html=1;align=center;fillColor=#1ba1e2;fontColor=#ffffff;strokeColor=#006EAF;" parent="1" vertex="1">
          <mxGeometry x="690" y="200" width="100" height="40" as="geometry" />
        </mxCell>
        <mxCell id="K4kN4xh6zabSOPXQYrLH-67" value="quantity" style="ellipse;whiteSpace=wrap;html=1;align=center;fillColor=#1ba1e2;fontColor=#ffffff;strokeColor=#006EAF;" parent="1" vertex="1">
          <mxGeometry x="950" y="240" width="100" height="40" as="geometry" />
        </mxCell>
        <mxCell id="K4kN4xh6zabSOPXQYrLH-68" value="" style="endArrow=none;html=1;rounded=0;entryX=0;entryY=0.427;entryDx=0;entryDy=0;entryPerimeter=0;exitX=0.307;exitY=0.95;exitDx=0;exitDy=0;exitPerimeter=0;" parent="1" source="K4kN4xh6zabSOPXQYrLH-66" target="K4kN4xh6zabSOPXQYrLH-26" edge="1">
          <mxGeometry relative="1" as="geometry">
            <mxPoint x="700" y="240" as="sourcePoint" />
            <mxPoint x="860" y="240" as="targetPoint" />
            <Array as="points">
              <mxPoint x="720" y="311" />
            </Array>
          </mxGeometry>
        </mxCell>
        <mxCell id="K4kN4xh6zabSOPXQYrLH-69" value="" style="endArrow=none;html=1;rounded=0;" parent="1" edge="1">
          <mxGeometry relative="1" as="geometry">
            <mxPoint x="827" y="210" as="sourcePoint" />
            <mxPoint x="827" y="295" as="targetPoint" />
          </mxGeometry>
        </mxCell>
        <mxCell id="K4kN4xh6zabSOPXQYrLH-70" value="" style="endArrow=none;html=1;rounded=0;entryX=0.773;entryY=0.027;entryDx=0;entryDy=0;entryPerimeter=0;" parent="1" target="K4kN4xh6zabSOPXQYrLH-26" edge="1">
          <mxGeometry relative="1" as="geometry">
            <mxPoint x="910" y="250" as="sourcePoint" />
            <mxPoint x="1004.5" y="240" as="targetPoint" />
            <Array as="points">
              <mxPoint x="910" y="290" />
            </Array>
          </mxGeometry>
        </mxCell>
        <mxCell id="K4kN4xh6zabSOPXQYrLH-71" value="" style="endArrow=none;html=1;rounded=0;" parent="1" edge="1">
          <mxGeometry relative="1" as="geometry">
            <mxPoint x="960" y="270" as="sourcePoint" />
            <mxPoint x="900" y="313" as="targetPoint" />
            <Array as="points">
              <mxPoint x="960" y="313" />
            </Array>
          </mxGeometry>
        </mxCell>
        <mxCell id="K4kN4xh6zabSOPXQYrLH-72" value="price" style="ellipse;whiteSpace=wrap;html=1;align=center;fillColor=#1ba1e2;fontColor=#ffffff;strokeColor=#006EAF;" parent="1" vertex="1">
          <mxGeometry x="970" y="310" width="100" height="40" as="geometry" />
        </mxCell>
        <mxCell id="K4kN4xh6zabSOPXQYrLH-73" value="" style="endArrow=none;html=1;rounded=0;" parent="1" edge="1">
          <mxGeometry relative="1" as="geometry">
            <mxPoint x="900" y="330" as="sourcePoint" />
            <mxPoint x="970" y="330" as="targetPoint" />
          </mxGeometry>
        </mxCell>
        <mxCell id="K4kN4xh6zabSOPXQYrLH-74" value="" style="shape=link;html=1;rounded=0;" parent="1" edge="1">
          <mxGeometry relative="1" as="geometry">
            <mxPoint x="870" y="340" as="sourcePoint" />
            <mxPoint x="910" y="420" as="targetPoint" />
            <Array as="points">
              <mxPoint x="870" y="380" />
              <mxPoint x="910" y="380" />
            </Array>
          </mxGeometry>
        </mxCell>
        <mxCell id="K4kN4xh6zabSOPXQYrLH-75" value="" style="resizable=0;html=1;whiteSpace=wrap;align=right;verticalAlign=bottom;" parent="K4kN4xh6zabSOPXQYrLH-74" connectable="0" vertex="1">
          <mxGeometry x="1" relative="1" as="geometry" />
        </mxCell>
        <mxCell id="K4kN4xh6zabSOPXQYrLH-76" value="belong" style="shape=rhombus;perimeter=rhombusPerimeter;whiteSpace=wrap;html=1;align=center;fillColor=#eeeeee;strokeColor=#36393d;" parent="1" vertex="1">
          <mxGeometry x="860" y="410" width="100" height="50" as="geometry" />
        </mxCell>
        <mxCell id="K4kN4xh6zabSOPXQYrLH-77" value="" style="endArrow=none;html=1;rounded=0;" parent="1" edge="1">
          <mxGeometry relative="1" as="geometry">
            <mxPoint x="960" y="434.5" as="sourcePoint" />
            <mxPoint x="1210" y="435" as="targetPoint" />
          </mxGeometry>
        </mxCell>
        <mxCell id="K4kN4xh6zabSOPXQYrLH-79" value="&lt;font style=&quot;font-size: 15px;&quot;&gt;ID&lt;/font&gt;" style="ellipse;whiteSpace=wrap;html=1;align=center;fontStyle=4;fillColor=#1ba1e2;fontColor=#ffffff;strokeColor=#006EAF;" parent="1" vertex="1">
          <mxGeometry x="640" y="340" width="100" height="40" as="geometry" />
        </mxCell>
        <mxCell id="K4kN4xh6zabSOPXQYrLH-80" value="" style="endArrow=none;html=1;rounded=0;" parent="1" edge="1">
          <mxGeometry relative="1" as="geometry">
            <mxPoint x="680" y="410" as="sourcePoint" />
            <mxPoint x="680" y="380" as="targetPoint" />
          </mxGeometry>
        </mxCell>
        <mxCell id="Ur9Scc5VZ2CT9IjGtjHX-1" value="" style="endArrow=none;html=1;rounded=0;entryX=0.444;entryY=0.967;entryDx=0;entryDy=0;entryPerimeter=0;" parent="1" target="Ur9Scc5VZ2CT9IjGtjHX-2" edge="1">
          <mxGeometry relative="1" as="geometry">
            <mxPoint x="80" y="718.25" as="sourcePoint" />
            <mxPoint x="50" y="674" as="targetPoint" />
            <Array as="points">
              <mxPoint x="80" y="674" />
            </Array>
          </mxGeometry>
        </mxCell>
        <mxCell id="Ur9Scc5VZ2CT9IjGtjHX-2" value="address_ID" style="ellipse;whiteSpace=wrap;html=1;align=center;fillColor=#1ba1e2;fontColor=#ffffff;strokeColor=#006EAF;rotation=-90;" parent="1" vertex="1">
          <mxGeometry x="-20" y="655" width="100" height="30" as="geometry" />
        </mxCell>
        <mxCell id="Ur9Scc5VZ2CT9IjGtjHX-3" value="" style="endArrow=none;html=1;rounded=0;" parent="1" edge="1">
          <mxGeometry relative="1" as="geometry">
            <mxPoint x="410" y="490" as="sourcePoint" />
            <mxPoint x="480" y="458.46" as="targetPoint" />
            <Array as="points">
              <mxPoint x="410" y="458" />
            </Array>
          </mxGeometry>
        </mxCell>
        <mxCell id="Ur9Scc5VZ2CT9IjGtjHX-4" value="discount code_ID" style="ellipse;whiteSpace=wrap;html=1;align=center;fillColor=#1ba1e2;fontColor=#ffffff;strokeColor=#006EAF;" parent="1" vertex="1">
          <mxGeometry x="320" y="490" width="120" height="60" as="geometry" />
        </mxCell>
        <mxCell id="Ur9Scc5VZ2CT9IjGtjHX-6" value="" style="endArrow=none;html=1;rounded=0;" parent="1" edge="1">
          <mxGeometry relative="1" as="geometry">
            <mxPoint x="480" y="200" as="sourcePoint" />
            <mxPoint x="510" y="270" as="targetPoint" />
            <Array as="points">
              <mxPoint x="480" y="270" />
            </Array>
          </mxGeometry>
        </mxCell>
        <mxCell id="Ur9Scc5VZ2CT9IjGtjHX-7" value="&lt;font style=&quot;font-size: 14px;&quot;&gt;ID&lt;/font&gt;" style="ellipse;whiteSpace=wrap;html=1;align=center;fillColor=#1ba1e2;fontColor=#ffffff;strokeColor=#006EAF;" parent="1" vertex="1">
          <mxGeometry x="430" y="160" width="100" height="40" as="geometry" />
        </mxCell>
        <mxCell id="CXZVb5-um_h7rUPkJkZq-10" value="" style="shape=mxgraph.arrows2.wedgeArrow;html=1;bendable=0;startWidth=10.000000000000004;fillColor=strokeColor;defaultFillColor=invert;defaultGradientColor=invert;rounded=0;" edge="1" parent="1">
          <mxGeometry width="100" height="100" relative="1" as="geometry">
            <mxPoint x="110" y="710" as="sourcePoint" />
            <mxPoint x="110" y="720" as="targetPoint" />
          </mxGeometry>
        </mxCell>
        <mxCell id="CXZVb5-um_h7rUPkJkZq-11" value="" style="shape=link;html=1;rounded=0;" edge="1" parent="1">
          <mxGeometry relative="1" as="geometry">
            <mxPoint x="110" y="270" as="sourcePoint" />
            <mxPoint x="110" y="190" as="targetPoint" />
          </mxGeometry>
        </mxCell>
        <mxCell id="CXZVb5-um_h7rUPkJkZq-19" value="" style="endArrow=classic;html=1;rounded=0;exitX=0.492;exitY=0.971;exitDx=0;exitDy=0;exitPerimeter=0;entryX=0.454;entryY=0.01;entryDx=0;entryDy=0;entryPerimeter=0;" edge="1" parent="1" source="K-ahxIOYB4QELCuEIj93-17" target="K-ahxIOYB4QELCuEIj93-1">
          <mxGeometry width="50" height="50" relative="1" as="geometry">
            <mxPoint x="680" y="430" as="sourcePoint" />
            <mxPoint x="730" y="380" as="targetPoint" />
            <Array as="points" />
          </mxGeometry>
        </mxCell>
        <mxCell id="CXZVb5-um_h7rUPkJkZq-22" value="" style="shape=mxgraph.arrows2.wedgeArrow;html=1;bendable=0;startWidth=8.571428571428573;fillColor=strokeColor;defaultFillColor=invert;defaultGradientColor=invert;rounded=0;" edge="1" parent="1">
          <mxGeometry width="100" height="100" relative="1" as="geometry">
            <mxPoint x="920" y="560" as="sourcePoint" />
            <mxPoint x="920" y="570" as="targetPoint" />
          </mxGeometry>
        </mxCell>
      </root>
    </mxGraphModel>
  </diagram>
</mxfile>
